<svg width="26" height="26" viewBox="0 0 26 26" fill="none" xmlns="http://www.w3.org/2000/svg">
<path d="M16.6215 4.10934C16.58 4.36891 16.5592 4.62849 16.5592 4.88807C16.5592 7.22427 18.4489 9.11295 20.7748 9.11295C21.0343 9.11295 21.2835 9.08284 21.5431 9.04131V17.4194C21.5431 20.9403 19.4665 23.0273 15.9362 23.0273H8.26416C4.73287 23.0273 2.65625 20.9403 2.65625 17.4194V9.73698C2.65625 6.20672 4.73287 4.10934 8.26416 4.10934H16.6215ZM16.8302 10.4223C16.5488 10.3911 16.2695 10.5157 16.1024 10.7441L13.5907 13.994L10.7135 11.7305C10.537 11.5956 10.3294 11.5426 10.1217 11.5644C9.91507 11.5956 9.72818 11.7087 9.60254 11.8749L6.53018 15.8734L6.46685 15.9668C6.29033 16.2981 6.3734 16.7238 6.68489 16.9532C6.83026 17.0467 6.986 17.109 7.16251 17.109C7.40236 17.1194 7.62975 16.9937 7.77512 16.7975L10.3813 13.4427L13.3405 15.6657L13.4339 15.727C13.7662 15.9035 14.1815 15.8215 14.4203 15.5089L17.421 11.6371L17.3795 11.6578C17.5456 11.4294 17.5768 11.1387 17.4625 10.8791C17.3494 10.6195 17.0991 10.443 16.8302 10.4223ZM20.9202 2.26083C22.3012 2.26083 23.4225 3.38221 23.4225 4.76316C23.4225 6.14411 22.3012 7.26549 20.9202 7.26549C19.5393 7.26549 18.4179 6.14411 18.4179 4.76316C18.4179 3.38221 19.5393 2.26083 20.9202 2.26083Z" fill="white"/>
</svg>
