<svg width="26" height="26" viewBox="0 0 26 26" fill="none" xmlns="http://www.w3.org/2000/svg">
<path fill-rule="evenodd" clip-rule="evenodd" d="M17.9776 23.3029C21.574 23.3029 23.6043 21.263 23.6149 17.6666V7.79C23.6149 4.19466 21.574 2.15377 17.9776 2.15377H8.10205C4.50565 2.15377 2.46582 4.19466 2.46582 7.79V17.6666C2.46582 21.263 4.50565 23.3029 8.10205 23.3029H17.9776ZM17.7991 6.38357C17.2151 6.38357 16.7416 6.857 16.7416 7.44102V19.073C16.7416 19.657 17.2151 20.1305 17.7991 20.1305H18.8565C19.4405 20.1305 19.914 19.657 19.914 19.073V7.44102C19.914 6.857 19.4405 6.38357 18.8565 6.38357H17.7991ZM11.6418 7.44102C11.6418 6.857 12.1152 6.38357 12.6992 6.38357H13.6461C14.2301 6.38357 14.7036 6.857 14.7036 7.44102V11.9396C14.7036 12.5236 14.2301 12.9971 13.6461 12.9971H12.6992C12.1152 12.9971 11.6418 12.5236 11.6418 11.9396V7.44102ZM7.75326 6.38357C7.16924 6.38357 6.6958 6.857 6.6958 7.44102V15.9007C6.6958 16.4847 7.16924 16.9581 7.75326 16.9581H8.81071C9.39473 16.9581 9.86816 16.4847 9.86816 15.9007V7.44102C9.86816 6.857 9.39473 6.38357 8.81071 6.38357H7.75326Z" fill="white"/>
</svg>
