<svg width="22" height="22" viewBox="0 0 22 22" fill="none" xmlns="http://www.w3.org/2000/svg">
<g clip-path="url(#clip0_128_43924)">
<path d="M12.3308 2.35811C12.2007 2.13151 12.0131 1.94326 11.787 1.81234C11.5609 1.68143 11.3043 1.61249 11.043 1.61249C10.7817 1.61249 10.5251 1.68143 10.299 1.81234C10.0729 1.94326 9.88531 2.13151 9.75523 2.35811L0.744748 17.6892C0.144224 18.7115 0.864327 20.0111 2.03252 20.0111H20.0522C21.2204 20.0111 21.9418 18.7102 21.34 17.6892L12.3308 2.35811ZM11.0404 6.87057C11.7434 6.87057 12.294 7.47767 12.223 8.17806L11.7631 12.7865C11.7477 12.9675 11.6648 13.1361 11.531 13.259C11.3972 13.3819 11.2221 13.4501 11.0404 13.4501C10.8587 13.4501 10.6836 13.3819 10.5498 13.259C10.4159 13.1361 10.3331 12.9675 10.3176 12.7865L9.85773 8.17806C9.84121 8.0128 9.8595 7.84591 9.9114 7.68814C9.96331 7.53037 10.0477 7.38522 10.1591 7.26205C10.2705 7.13887 10.4065 7.0404 10.5583 6.97298C10.7101 6.90555 10.8743 6.87067 11.0404 6.87057ZM11.043 14.7549C11.3915 14.7549 11.7258 14.8934 11.9722 15.1398C12.2186 15.3862 12.3571 15.7205 12.3571 16.069C12.3571 16.4175 12.2186 16.7517 11.9722 16.9981C11.7258 17.2446 11.3915 17.383 11.043 17.383C10.6945 17.383 10.3603 17.2446 10.1138 16.9981C9.8674 16.7517 9.72895 16.4175 9.72895 16.069C9.72895 15.7205 9.8674 15.3862 10.1138 15.1398C10.3603 14.8934 10.6945 14.7549 11.043 14.7549Z" fill="white"/>
</g>
<defs>
<clipPath id="clip0_128_43924">
<rect width="21.0249" height="21.0249" fill="white" transform="translate(0.52832 0.300293)"/>
</clipPath>
</defs>
</svg>
