<svg width="19" height="19" viewBox="0 0 19 19" fill="none" xmlns="http://www.w3.org/2000/svg">
<path d="M13.5308 12.275C14.6276 10.7784 15.1188 8.92288 14.9062 7.07964C14.6936 5.2364 13.7929 3.54139 12.3843 2.33373C10.9756 1.12607 9.16294 0.494814 7.30886 0.566255C5.45478 0.637696 3.69604 1.40657 2.38451 2.71904C1.07297 4.03152 0.305358 5.7908 0.235243 7.64494C0.165129 9.49907 0.797682 11.3113 2.00635 12.7191C3.21502 14.1269 4.91067 15.0264 6.75406 15.2376C8.59745 15.4489 10.4526 14.9563 11.9485 13.8585H11.9473C11.9813 13.9038 12.0176 13.9468 12.0583 13.9888L16.4191 18.3495C16.6315 18.5621 16.9196 18.6815 17.2201 18.6816C17.5205 18.6817 17.8087 18.5625 18.0213 18.3501C18.2338 18.1377 18.3533 17.8496 18.3534 17.5491C18.3535 17.2487 18.2342 16.9605 18.0218 16.7479L13.6611 12.3872C13.6206 12.3462 13.577 12.3083 13.5308 12.2739V12.275ZM13.823 7.92104C13.823 8.73914 13.6619 9.54922 13.3488 10.305C13.0358 11.0609 12.5769 11.7476 11.9984 12.3261C11.4199 12.9046 10.7332 13.3634 9.97734 13.6765C9.22152 13.9896 8.41144 14.1507 7.59335 14.1507C6.77525 14.1507 5.96517 13.9896 5.20935 13.6765C4.45353 13.3634 3.76678 12.9046 3.1883 12.3261C2.60982 11.7476 2.15094 11.0609 1.83787 10.305C1.5248 9.54922 1.36367 8.73914 1.36367 7.92104C1.36367 6.26883 2.02001 4.68428 3.1883 3.51599C4.35659 2.3477 5.94113 1.69136 7.59335 1.69136C9.24556 1.69136 10.8301 2.3477 11.9984 3.51599C13.1667 4.68428 13.823 6.26883 13.823 7.92104V7.92104Z" fill="#999999"/>
</svg>
