<svg width="13" height="14" viewBox="0 0 13 14" fill="none" xmlns="http://www.w3.org/2000/svg">
<g clip-path="url(#clip0_105_49001)">
<path d="M9.33025 2.09501C9.46788 1.95738 9.63128 1.8482 9.8111 1.77371C9.99093 1.69923 10.1837 1.66089 10.3783 1.66089C10.573 1.66089 10.7657 1.69923 10.9455 1.77371C11.1254 1.8482 11.2887 1.95738 11.4264 2.09501C11.564 2.23265 11.6732 2.39604 11.7477 2.57587C11.8222 2.7557 11.8605 2.94844 11.8605 3.14308C11.8605 3.33773 11.8222 3.53047 11.7477 3.71029C11.6732 3.89012 11.564 4.05352 11.4264 4.19115L4.35192 11.2656L1.46973 12.0517L2.25578 9.16948L9.33025 2.09501Z" stroke="#0D6EFD" stroke-width="1.5721" stroke-linecap="round" stroke-linejoin="round"/>
</g>
<defs>
<clipPath id="clip0_105_49001">
<rect width="12.5768" height="12.5768" fill="white" transform="translate(0.421387 0.522949)"/>
</clipPath>
</defs>
</svg>
