<svg width="22" height="16" viewBox="0 0 22 16" fill="none" xmlns="http://www.w3.org/2000/svg">
<path d="M10.994 10.2021C14.1623 10.2021 16.8676 10.7044 16.8676 12.7144C16.8676 14.7236 14.1797 15.2442 10.994 15.2442C7.82568 15.2442 5.12038 14.7419 5.12038 12.7327C5.12038 10.7227 7.80832 10.2021 10.994 10.2021ZM16.0597 8.99182C17.271 8.96937 18.5732 9.13569 19.0544 9.25378C20.0739 9.4542 20.7444 9.86335 21.0222 10.458C21.257 10.9461 21.257 11.5124 21.0222 11.9998C20.5972 12.922 19.2272 13.2181 18.6948 13.2946C18.5848 13.3112 18.4963 13.2156 18.5079 13.105C18.7799 10.5494 16.6162 9.33777 16.0564 9.05918C16.0325 9.04671 16.0275 9.02758 16.03 9.01594C16.0316 9.00762 16.0415 8.99432 16.0597 8.99182ZM5.79491 8.9901L6.023 8.99216C6.04119 8.99465 6.05028 9.00796 6.05194 9.01544C6.05442 9.02792 6.04946 9.04621 6.0263 9.05952C5.46573 9.3381 3.30198 10.5498 3.574 13.1045C3.58558 13.2159 3.49794 13.3107 3.38797 13.2949C2.85551 13.2184 1.4855 12.9223 1.06052 12.0001C0.824879 11.5119 0.824879 10.9464 1.06052 10.4583C1.33832 9.86368 2.00804 9.45453 3.02749 9.25328C3.50951 9.13602 4.8109 8.9697 6.023 8.99216L5.79491 8.9901ZM10.994 0.469986C13.1511 0.469986 14.8808 2.20805 14.8808 4.37855C14.8808 6.54822 13.1511 8.28795 10.994 8.28795C8.83686 8.28795 7.10719 6.54822 7.10719 4.37855C7.10719 2.20805 8.83686 0.469986 10.994 0.469986ZM16.2706 1.1218C18.3541 1.1218 19.9904 3.09355 19.4331 5.28983C19.0569 6.76843 17.6952 7.75056 16.178 7.71064C16.0258 7.70649 15.8762 7.69235 15.7315 7.6674C15.6265 7.64911 15.5736 7.53019 15.6331 7.44204C16.2119 6.58548 16.5418 5.55511 16.5418 4.44907C16.5418 3.2948 16.1813 2.21869 15.5554 1.33636C15.5355 1.30891 15.5207 1.2665 15.5405 1.2349C15.557 1.20912 15.5876 1.19581 15.6166 1.18916C15.8274 1.14592 16.044 1.1218 16.2706 1.1218ZM5.81092 1.12172C6.03747 1.12172 6.25409 1.14584 6.46575 1.18908C6.49386 1.19573 6.52528 1.20987 6.54182 1.23482C6.56083 1.26642 6.54678 1.30883 6.52693 1.33627C5.90104 2.21861 5.54056 3.29471 5.54056 4.44899C5.54056 5.55503 5.87045 6.58539 6.44922 7.44195C6.50875 7.5301 6.45583 7.64902 6.35083 7.66732C6.20531 7.6931 6.05648 7.7064 5.90435 7.71056C4.38717 7.75048 3.02542 6.76835 2.64922 5.28975C2.09113 3.09347 3.72738 1.12172 5.81092 1.12172Z" fill="white"/>
</svg>
